<svg version="1.1" xmlns="http://www.w3.org/2000/svg" xmlns:xlink="http://www.w3.org/1999/xlink" viewBox="0 0 1002 128" style="enable-background:new 0 0 1002 128;">
<style type="text/css">
	.footer-logo-svg-red{fill:#657173;}
	.footer-logo-svg-maroon{fill:#657173;}
</style>
<defs>
</defs>
<path class="footer-logo-svg-red" d="M340.6,113H971c3.9,0,7.9-0.4,9.7-1.2c1.7-0.8,2.6-2.2,2.6-4.1c0-2-2-4.6-3.6-7.7v-0.2c0-0.4,0.3-0.7,0.8-1
	c0.5-0.2,0.9-0.1,1.1,0.3l9.3,15.1l0.2,0.6c0,0.2-0.1,0.5-0.3,0.7c-0.2,0.3-0.5,0.4-0.8,0.4c-0.6,0-2.7-0.1-6.3-0.2
	c-3.6-0.1-7.7-0.2-12.4-0.2H340.6V113z"/>
<path class="footer-logo-svg-red" d="M229.1,117.5H55.7v-2.8h173.2L229.1,117.5z"/>
<g>
	<path class="footer-logo-svg-maroon" d="M43.7,14.8c0,0.5-0.1,0.8-0.3,0.8c-2.9,0-4.9,0.3-6.2,0.8c-1.3,0.5-2.2,1.4-2.7,2.7c-0.5,1.3-0.7,3.2-0.7,5.8
		v74.1c0,8.6-2,15.4-6,20.5c-4,5.1-9.8,7.6-17.3,7.6c-3,0-5.3-0.5-7-1.5c-1.7-1-2.5-2.4-2.5-4.1c0-1.3,0.4-2.3,1.2-3.1
		c0.8-0.8,1.9-1.2,3.3-1.2c1.5,0,2.6,0.3,3.4,1c0.8,0.6,1.6,1.6,2.5,2.9c0.8,1.2,1.5,2.1,2.1,2.6c0.6,0.5,1.5,0.8,2.6,0.8
		c3.1,0,5.4-1.8,7-5.4c1.5-3.6,2.3-9.4,2.3-17.4V24.5c0-2.6-0.3-4.5-0.9-5.7c-0.6-1.2-1.8-2.1-3.6-2.5c-1.8-0.5-4.5-0.7-8.3-0.7
		c-0.2,0-0.3-0.3-0.3-0.8s0.1-0.8,0.3-0.8l7.6,0.1c4,0.2,7.1,0.3,9.4,0.3c2.3,0,5-0.1,8.3-0.3l5.7-0.1C43.6,14,43.7,14.3,43.7,14.8z
		"/>
	<path class="footer-logo-svg-maroon" d="M61.4,93.3c-3.9-2.5-6.8-5.8-8.9-10c-2.1-4.2-3.1-8.8-3.1-13.7c0-5.6,1.4-10.4,4.1-14.4
		c2.7-3.9,6.2-6.9,10.5-8.8c4.3-2,8.7-2.9,13.1-2.9c5.1,0,9.6,1.3,13.4,3.8c3.8,2.5,6.7,5.8,8.8,9.9c2,4.1,3.1,8.5,3.1,13.1
		c0,5.4-1.3,10.1-3.8,14.1c-2.5,4-5.9,7.2-10.1,9.4c-4.2,2.2-8.8,3.3-13.7,3.3C69.7,97,65.2,95.7,61.4,93.3z M89.5,89.4
		c2.6-3.4,3.9-8.6,3.9-15.6c0-5.4-0.9-10.2-2.7-14.4c-1.8-4.2-4.2-7.6-7.4-9.9c-3.1-2.4-6.7-3.6-10.7-3.6c-4.7,0-8.3,1.7-10.9,5.1
		c-2.6,3.4-3.8,8.2-3.8,14.6c0,5.3,0.9,10.1,2.6,14.6c1.7,4.4,4.2,7.9,7.3,10.5c3.1,2.6,6.6,3.9,10.5,3.9
		C83.2,94.5,86.9,92.8,89.5,89.4z"/>
	<path class="footer-logo-svg-maroon" d="M167.5,94.5c0,0.5-0.1,0.8-0.4,0.8c-2,0-3.6,0-4.8-0.1l-7-0.1l-7,0.1c-1.2,0.1-2.8,0.1-4.8,0.1
		c-0.3,0-0.4-0.3-0.4-0.8c0-0.5,0.1-0.8,0.4-0.8c2.3,0,4.1-0.2,5.2-0.7c1.1-0.5,1.9-1.3,2.3-2.6c0.4-1.3,0.7-3.1,0.7-5.7V64.1
		c0-5.1-1-8.9-2.9-11.4c-2-2.5-5-3.7-9-3.7c-2.7,0-5.4,0.7-8.2,2.1c-2.8,1.4-5.3,3.4-7.6,5.9v27.7c0,2.5,0.2,4.4,0.7,5.7
		c0.4,1.3,1.2,2.1,2.3,2.6c1.1,0.5,2.9,0.7,5.2,0.7c0.3,0,0.4,0.3,0.4,0.8c0,0.5-0.1,0.8-0.4,0.8c-2,0-3.6,0-4.8-0.1l-7-0.1l-7,0.1
		c-1.2,0.1-2.8,0.1-4.8,0.1c-0.3,0-0.4-0.3-0.4-0.8c0-0.5,0.1-0.8,0.4-0.8c2.3,0,4.1-0.2,5.2-0.7c1.1-0.5,1.9-1.3,2.3-2.6
		c0.4-1.3,0.7-3.1,0.7-5.7V17.5c0-3.1-0.3-5.4-0.9-6.8c-0.6-1.4-1.7-2.1-3.3-2.1c-1.3,0-3.3,0.6-6,1.8h-0.3c-0.3,0-0.5-0.2-0.7-0.6
		c-0.2-0.4-0.1-0.7,0.3-0.8L122.4,1h0.4c0.3,0,0.6,0.1,0.8,0.3c0.2,0.2,0.3,0.5,0.3,0.7v52.8c3.3-3.8,6.6-6.6,9.8-8.4
		c3.3-1.8,6.7-2.7,10.2-2.7c4.8,0,8.5,1.3,11.1,4c2.6,2.7,3.9,6.6,3.9,11.7v25.2c0,2.5,0.2,4.4,0.7,5.7c0.4,1.3,1.2,2.1,2.3,2.6
		c1.1,0.5,2.9,0.7,5.2,0.7C167.4,93.7,167.5,94,167.5,94.5z"/>
	<path class="footer-logo-svg-maroon" d="M232.9,94.5c0,0.5-0.1,0.8-0.4,0.8c-2,0-3.6,0-4.7-0.1l-7-0.1l-7.2,0.1c-1.1,0.1-2.7,0.1-4.7,0.1
		c-0.3,0-0.4-0.3-0.4-0.8c0-0.5,0.1-0.8,0.4-0.8c2.3,0,4.1-0.2,5.2-0.7c1.1-0.5,1.9-1.3,2.3-2.5c0.4-1.2,0.6-3.1,0.6-5.7V63.7
		c0-5.1-1-8.9-2.9-11.3c-2-2.4-5-3.6-9-3.6c-2.7,0-5.4,0.7-8.1,2.1c-2.7,1.4-5.2,3.4-7.5,5.9v28c0,2.6,0.2,4.5,0.6,5.7
		c0.4,1.2,1.1,2.1,2.3,2.5c1.1,0.5,2.9,0.7,5.2,0.7c0.3,0,0.4,0.3,0.4,0.8c0,0.5-0.1,0.8-0.4,0.8c-2,0-3.6,0-4.7-0.1l-7-0.1
		l-7.2,0.1c-1.1,0.1-2.7,0.1-4.7,0.1c-0.3,0-0.4-0.3-0.4-0.8c0-0.5,0.1-0.8,0.4-0.8c2.3,0,4.1-0.2,5.2-0.7c1.1-0.5,1.9-1.3,2.3-2.5
		c0.4-1.2,0.6-3.1,0.6-5.7V59c0-2.9-0.3-5.1-1-6.4c-0.7-1.3-1.9-2-3.5-2c-1.4,0-3.7,0.6-7,2h-0.3c-0.3,0-0.6-0.2-0.7-0.6
		c-0.1-0.4,0-0.7,0.3-0.8l15.1-7.2l0.8-0.1c0.8,0,1.6,1,2.5,3c0.9,2,1.3,4.6,1.3,7.7c3.3-3.8,6.6-6.6,9.8-8.5
		c3.3-1.8,6.6-2.7,10.1-2.7c4.9,0,8.6,1.3,11.2,4c2.6,2.7,3.9,6.6,3.9,11.8v25.5c0,2.6,0.2,4.5,0.6,5.7c0.4,1.2,1.1,2.1,2.3,2.5
		c1.1,0.5,2.9,0.7,5.2,0.7C232.8,93.7,232.9,94,232.9,94.5z"/>
</g>
<g>
	<path class="footer-logo-svg-maroon" d="M298.7,14.8c0,0.5-0.1,0.8-0.3,0.8c-2.9,0-4.9,0.3-6.2,0.8c-1.3,0.5-2.2,1.4-2.7,2.7c-0.5,1.3-0.7,3.2-0.7,5.8
		v74.1c0,8.6-2,15.4-6,20.5c-4,5.1-9.8,7.6-17.3,7.6c-3,0-5.3-0.5-7-1.5c-1.7-1-2.5-2.4-2.5-4.1c0-1.3,0.4-2.3,1.2-3.1
		c0.8-0.8,1.9-1.2,3.3-1.2c1.5,0,2.6,0.3,3.4,1c0.8,0.6,1.6,1.6,2.5,2.9c0.8,1.2,1.5,2.1,2.1,2.6c0.6,0.5,1.5,0.8,2.6,0.8
		c3.1,0,5.4-1.8,7-5.4c1.5-3.6,2.3-9.4,2.3-17.4V24.5c0-2.6-0.3-4.5-0.9-5.7c-0.6-1.2-1.8-2.1-3.6-2.5c-1.8-0.5-4.5-0.7-8.3-0.7
		c-0.2,0-0.3-0.3-0.3-0.8s0.1-0.8,0.3-0.8l7.6,0.1c4,0.2,7.1,0.3,9.4,0.3c2.3,0,5-0.1,8.3-0.3l5.7-0.1
		C298.6,14,298.7,14.3,298.7,14.8z"/>
	<path class="footer-logo-svg-maroon" d="M305.9,95.1c-1-1-1.6-2.4-1.6-4.2c0-1.6,0.5-2.9,1.6-3.9c1-1,2.4-1.4,4.2-1.4c1.8,0,3.2,0.5,4.2,1.4
		c1,1,1.5,2.3,1.5,3.9c0,1.7-0.5,3.1-1.5,4.2c-1,1-2.4,1.6-4.2,1.6C308.4,96.7,307,96.2,305.9,95.1z"/>
</g>
<g>
	<path class="footer-logo-svg-maroon" d="M441.4,94.5c0,0.5-0.1,0.8-0.4,0.8c-2.7,0-4.8,0-6.4-0.1l-9-0.1l-8.3,0.1c-1.4,0.1-3.3,0.1-5.9,0.1
		c-0.2,0-0.3-0.3-0.3-0.8c0-0.5,0.1-0.8,0.3-0.8c3,0,5.1-0.2,6.6-0.7c1.4-0.5,2.4-1.3,2.9-2.5c0.5-1.2,0.6-3.1,0.5-5.7L419,25.6
		l-29.7,68.8c-0.2,0.3-0.5,0.5-1,0.5c-0.4,0-0.8-0.2-1.2-0.5l-32-68l-1.2,54.7c-0.1,4.6,0.7,7.8,2.3,9.8c1.6,1.9,4.6,2.9,8.7,2.9
		c0.2,0,0.3,0.3,0.3,0.8c0,0.5-0.1,0.8-0.3,0.8c-2.4,0-4.3,0-5.6-0.1l-7-0.1l-6.8,0.1c-1.2,0.1-3,0.1-5.2,0.1
		c-0.2,0-0.3-0.3-0.3-0.8c0-0.5,0.1-0.8,0.3-0.8c3.6,0,6.3-1,7.9-2.9c1.6-2,2.5-5.2,2.5-9.7l1.2-60.3c-2.6-3.5-6.2-5.2-10.7-5.2
		c-0.2,0-0.3-0.3-0.3-0.8s0.1-0.8,0.3-0.8l4.8,0.1c0.9,0.1,2.1,0.1,3.6,0.1c1.6,0,2.9,0,4-0.1c1.1-0.1,1.9-0.1,2.5-0.1
		c1.1,0,2.1,0.4,2.8,1.2c0.7,0.8,1.8,2.7,3.2,5.5l29,61.1l28.4-64.6c1-2.2,2.3-3.3,3.9-3.3c0.4,0,1.1,0,1.9,0.1
		c0.8,0.1,1.9,0.1,3.3,0.1l6.1-0.1c1-0.1,2.4-0.1,4.3-0.1c0.3,0,0.4,0.3,0.4,0.8s-0.1,0.8-0.4,0.8c-4.3,0-7.4,0.6-9.3,1.9
		c-1.9,1.3-2.8,3.6-2.7,7.1l2.6,60.2c0.1,2.7,0.4,4.6,1,5.9c0.6,1.2,1.6,2,3.1,2.5c1.5,0.4,3.9,0.6,7.2,0.6
		C441.3,93.7,441.4,94,441.4,94.5z"/>
	<path class="footer-logo-svg-maroon" d="M488.9,88c0.3,0,0.5,0.2,0.7,0.5c0.2,0.3,0.2,0.6,0.1,0.8c-5.7,5-12.1,7.5-19,7.5c-5,0-9.3-1.2-12.9-3.5
		c-3.6-2.3-6.3-5.4-8.1-9.2c-1.9-3.8-2.8-7.9-2.8-12.2c0-5.1,1.2-9.8,3.6-14.1c2.4-4.3,5.7-7.7,10-10.1c4.2-2.5,8.8-3.7,13.9-3.7
		c4.9,0,8.6,1.3,11.2,3.9c2.6,2.6,3.9,6.2,3.9,10.9c0,1.2-0.1,2.1-0.3,2.6c-0.2,0.5-0.6,0.8-1.1,0.8l-32.3,0.1
		c-0.2,1.9-0.3,3.5-0.3,4.7c0,7.5,1.8,13.7,5.3,18.3c3.6,4.7,8.5,7,15,7c2.6,0,4.8-0.3,6.7-1c1.9-0.7,4-1.8,6.3-3.3H488.9z
		 M460.8,50.2c-2.4,2.5-4,5.9-4.8,10.3l24.7-0.5c0-4.4-1-7.8-2.9-10.1c-1.9-2.3-4.5-3.4-7.8-3.4C466.3,46.5,463.2,47.7,460.8,50.2z"
		/>
	<path class="footer-logo-svg-maroon" d="M546.7,88.3c0.3,0,0.6,0.2,0.7,0.6c0.1,0.4,0,0.7-0.4,0.8l-13.4,6.4c-0.3,0.2-0.7,0.3-1,0.3
		c-1.1,0-2.1-0.8-3-2.3c-0.9-1.5-1.4-3.6-1.7-6.2l-6.8,4.4c-2.2,1.4-4.1,2.4-5.7,3c-1.7,0.6-3.4,0.9-5.2,0.9c-3.2,0-5.7-0.8-7.5-2.5
		c-1.8-1.7-2.7-3.8-2.7-6.4c0-2.6,1-4.9,3.1-6.8c2.1-1.9,5.5-3.7,10.3-5.5l14.3-5.3v-8.8c0-9.7-2.7-14.6-8.2-14.6
		c-3,0-5.2,1-6.7,2.9c-1.5,2-2.5,4.2-3.1,6.7c-0.3,1.6-0.7,2.8-1.4,3.8c-0.7,1-1.9,1.5-3.5,1.5c-1.4,0-2.5-0.4-3.2-1.2
		c-0.7-0.8-1.1-1.7-1.1-2.7c0-2.1,1.3-4.2,4-6.2c2.7-2.1,5.9-3.8,9.6-5.2c3.7-1.4,7.1-2.1,10-2.1c3.6,0,6.2,1.1,8.1,3.4
		c1.8,2.3,2.7,5.5,2.7,9.8v24.3c0,3,0.4,5.2,1.2,6.6c0.8,1.4,2.1,2.1,3.9,2.1c1.6,0,3.8-0.6,6.4-1.7H546.7z M527.7,86v-0.6V71.5
		l-12.1,4.7c-2.4,1-4.2,2.1-5.3,3.3c-1.1,1.3-1.6,2.8-1.6,4.5c0,2.1,0.7,3.8,2,5.3c1.3,1.4,3.1,2.1,5.3,2.1c1.7,0,3.8-0.7,6.2-2.1
		L527.7,86z"/>
	<path class="footer-logo-svg-maroon" d="M586.6,45.5c1.7,1,2.6,2.3,2.6,3.8c0,1.1-0.4,2.1-1.1,2.9c-0.7,0.8-1.8,1.2-3.2,1.2c-0.8,0-1.5-0.2-2-0.5
		c-0.6-0.3-1.2-0.8-2-1.4c-0.8-0.7-1.5-1.2-2.2-1.6c-0.7-0.3-1.5-0.5-2.5-0.5c-1.1,0-2.3,0.5-3.6,1.4c-1.3,1-3.2,3-5.9,6.1v27.8
		c0,2.6,0.3,4.5,1,5.7c0.7,1.2,1.8,2.1,3.6,2.5c1.7,0.5,4.4,0.7,8.1,0.7c0.3,0,0.5,0.3,0.5,0.8c0,0.5-0.2,0.8-0.5,0.8
		c-2.8,0-5,0-6.6-0.1L563,95l-7.2,0.1c-1.1,0.1-2.7,0.1-4.7,0.1c-0.3,0-0.4-0.3-0.4-0.8c0-0.5,0.1-0.8,0.4-0.8
		c2.3,0,4.1-0.2,5.2-0.7c1.1-0.5,1.9-1.3,2.3-2.5c0.4-1.2,0.6-3.1,0.6-5.7V59c0-2.9-0.3-5.1-1-6.4c-0.7-1.3-1.9-2-3.5-2
		c-1.4,0-3.7,0.6-7,2h-0.3c-0.3,0-0.6-0.2-0.7-0.6c-0.1-0.4,0-0.7,0.3-0.8l15.1-7.2l0.8-0.1c0.8,0,1.6,1,2.5,3
		c0.9,2,1.3,4.6,1.3,7.7v0.1c3.6-4.2,6.4-7,8.5-8.5c2.1-1.5,4.1-2.3,6-2.3C583,43.9,584.8,44.4,586.6,45.5z"/>
	<path class="footer-logo-svg-maroon" d="M606.9,60.2c2,1.8,4.9,3.7,8.7,5.7c3,1.6,5.4,2.9,7.1,4c1.7,1.1,3.1,2.6,4.4,4.4c1.2,1.8,1.8,4,1.8,6.6
		c0,4.4-1.7,8.1-4.9,11.2c-3.3,3-7.8,4.6-13.4,4.6c-4.6,0-8.8-1.3-12.5-3.9c-0.5-0.3-0.8-0.9-0.8-1.6L597,81.1
		c0-0.3,0.2-0.4,0.7-0.5c0.5,0,0.8,0.1,0.8,0.3c1.6,4.3,3.8,7.6,6.4,9.9c2.6,2.3,5.7,3.4,9.2,3.4c2.9,0,5-0.7,6.5-2.1
		c1.5-1.4,2.1-3.4,2-6.1c-0.1-3.3-1.1-5.8-3.1-7.6c-2-1.8-4.9-3.6-8.8-5.5c-2.9-1.4-5.1-2.6-6.8-3.8c-1.7-1.1-3.1-2.6-4.3-4.4
		c-1.2-1.8-1.8-4.1-1.8-6.8c0-4.7,1.8-8.3,5.3-10.7c3.5-2.5,7.7-3.7,12.4-3.7c3.5,0,6.6,0.6,9.5,2c0.5,0.2,0.8,0.4,1,0.6
		c0.1,0.2,0.2,0.5,0.2,0.8c0,1.7,0,3.1-0.1,4l-0.1,5.5c0,0.2-0.3,0.3-0.8,0.3c-0.5,0-0.8-0.1-0.8-0.3c0-1.8-0.7-3.5-2.1-5.1
		c-1.4-1.6-3.1-2.9-5.2-3.8c-2.1-1-4.2-1.4-6.2-1.4c-2.2,0-3.9,0.6-5.1,1.8c-1.3,1.2-1.9,2.9-1.9,5.3
		C603.9,56,604.9,58.5,606.9,60.2z"/>
	<path class="footer-logo-svg-maroon" d="M695.3,94.5c0,0.5-0.1,0.8-0.4,0.8c-2,0-3.6,0-4.8-0.1l-7-0.1l-7,0.1c-1.2,0.1-2.8,0.1-4.8,0.1
		c-0.3,0-0.4-0.3-0.4-0.8c0-0.5,0.1-0.8,0.4-0.8c2.3,0,4.1-0.2,5.2-0.7c1.1-0.5,1.9-1.3,2.3-2.6c0.4-1.3,0.7-3.1,0.7-5.7V64.1
		c0-5.1-1-8.9-2.9-11.4c-2-2.5-5-3.7-9-3.7c-2.7,0-5.4,0.7-8.2,2.1c-2.8,1.4-5.3,3.4-7.6,5.9v27.7c0,2.5,0.2,4.4,0.7,5.7
		c0.4,1.3,1.2,2.1,2.3,2.6c1.1,0.5,2.9,0.7,5.2,0.7c0.3,0,0.4,0.3,0.4,0.8c0,0.5-0.1,0.8-0.4,0.8c-2,0-3.6,0-4.8-0.1l-7-0.1l-7,0.1
		c-1.2,0.1-2.8,0.1-4.8,0.1c-0.3,0-0.4-0.3-0.4-0.8c0-0.5,0.1-0.8,0.4-0.8c2.3,0,4.1-0.2,5.2-0.7c1.1-0.5,1.9-1.3,2.3-2.6
		c0.4-1.3,0.7-3.1,0.7-5.7V17.5c0-3.1-0.3-5.4-0.9-6.8c-0.6-1.4-1.7-2.1-3.3-2.1c-1.3,0-3.3,0.6-6,1.8H634c-0.3,0-0.5-0.2-0.7-0.6
		c-0.2-0.4-0.1-0.7,0.3-0.8L650.1,1h0.4c0.3,0,0.6,0.1,0.8,0.3c0.2,0.2,0.3,0.5,0.3,0.7v52.8c3.3-3.8,6.6-6.6,9.8-8.4
		c3.3-1.8,6.7-2.7,10.2-2.7c4.8,0,8.5,1.3,11.1,4c2.6,2.7,3.9,6.6,3.9,11.7v25.2c0,2.5,0.2,4.4,0.7,5.7c0.4,1.3,1.2,2.1,2.3,2.6
		c1.1,0.5,2.9,0.7,5.2,0.7C695.2,93.7,695.3,94,695.3,94.5z"/>
	<path class="footer-logo-svg-maroon" d="M742.6,88c0.3,0,0.5,0.2,0.7,0.5c0.2,0.3,0.2,0.6,0.1,0.8c-5.7,5-12.1,7.5-19,7.5c-5,0-9.3-1.2-12.9-3.5
		c-3.6-2.3-6.3-5.4-8.1-9.2c-1.9-3.8-2.8-7.9-2.8-12.2c0-5.1,1.2-9.8,3.6-14.1c2.4-4.3,5.7-7.7,10-10.1c4.2-2.5,8.8-3.7,13.9-3.7
		c4.9,0,8.6,1.3,11.2,3.9c2.6,2.6,3.9,6.2,3.9,10.9c0,1.2-0.1,2.1-0.3,2.6c-0.2,0.5-0.6,0.8-1.1,0.8l-32.3,0.1
		c-0.2,1.9-0.3,3.5-0.3,4.7c0,7.5,1.8,13.7,5.3,18.3c3.6,4.7,8.5,7,15,7c2.6,0,4.8-0.3,6.7-1c1.9-0.7,4-1.8,6.3-3.3H742.6z
		 M714.4,50.2c-2.4,2.5-4,5.9-4.8,10.3l24.7-0.5c0-4.4-1-7.8-2.9-10.1c-1.9-2.3-4.5-3.4-7.8-3.4C720,46.5,716.9,47.7,714.4,50.2z"/>
	<path class="footer-logo-svg-maroon" d="M753.6,94.5c0-0.5,0.1-0.8,0.3-0.8c2.3,0,4.1-0.2,5.3-0.7c1.2-0.5,2-1.3,2.4-2.6c0.4-1.3,0.7-3.1,0.7-5.7V60.4
		c0-3.1-0.3-5.4-1-6.8c-0.7-1.4-1.8-2.1-3.3-2.1c-1.6,0-3.5,0.6-5.9,1.8h-0.1c-0.3,0-0.6-0.2-0.8-0.7c-0.2-0.4-0.1-0.7,0.1-0.9
		l16.9-7.8l0.5-0.1c0.2,0,0.4,0.1,0.7,0.3c0.3,0.2,0.4,0.5,0.4,0.7c0,0.6,0,2.3-0.1,5.2c-0.1,2.9-0.1,6.2-0.1,10.1v24.4
		c0,2.6,0.2,4.5,0.7,5.7c0.4,1.2,1.2,2.1,2.3,2.5c1.1,0.5,2.9,0.7,5.2,0.7c0.3,0,0.4,0.3,0.4,0.8c0,0.5-0.1,0.8-0.4,0.8
		c-2,0-3.6,0-4.8-0.1l-7-0.1l-7,0.1c-1.2,0.1-2.9,0.1-4.9,0.1C753.7,95.3,753.6,95,753.6,94.5z M760.6,27.3c-1-1-1.5-2.3-1.5-4
		c0-1.7,0.5-3.1,1.5-4c1-1,2.4-1.4,4.2-1.4c1.7,0,3.1,0.5,4,1.4c1,1,1.4,2.3,1.4,4c0,1.7-0.5,3.1-1.4,4c-1,1-2.3,1.4-4,1.4
		C763,28.7,761.6,28.2,760.6,27.3z"/>
	<path class="footer-logo-svg-maroon" d="M877.7,94.5c0,0.5-0.2,0.8-0.5,0.8c-2,0-3.6,0-4.8-0.1l-7-0.1l-7,0.1c-1.2,0.1-2.8,0.1-4.8,0.1
		c-0.3,0-0.4-0.3-0.4-0.8c0-0.5,0.1-0.8,0.4-0.8c2.3,0,4.1-0.2,5.2-0.7c1.1-0.5,1.9-1.3,2.3-2.6c0.4-1.3,0.7-3.1,0.7-5.7V64.1
		c0-5.1-0.9-8.9-2.7-11.4c-1.8-2.5-4.6-3.7-8.5-3.7c-2.6,0-5.2,0.7-7.9,2.1c-2.6,1.4-5.1,3.4-7.4,6c0.1,0.4,0.1,1.1,0.1,2.1v25.5
		c0,2.6,0.2,4.5,0.7,5.7c0.4,1.2,1.2,2.1,2.3,2.5c1.1,0.5,2.9,0.7,5.2,0.7c0.3,0,0.4,0.3,0.4,0.8c0,0.5-0.1,0.8-0.4,0.8
		c-2,0-3.6,0-4.8-0.1l-7-0.1l-7.2,0.1c-1.1,0.1-2.7,0.1-4.7,0.1c-0.3,0-0.4-0.3-0.4-0.8c0-0.5,0.1-0.8,0.4-0.8
		c2.3,0,4.1-0.2,5.2-0.7c1.1-0.5,1.9-1.3,2.3-2.5c0.4-1.2,0.6-3.1,0.6-5.7V64.1c0-5.1-0.9-8.9-2.7-11.4c-1.8-2.5-4.6-3.7-8.3-3.7
		c-2.6,0-5.2,0.7-7.8,2.1c-2.6,1.4-5,3.3-7.2,5.9v27.8c0,2.6,0.2,4.5,0.6,5.7c0.4,1.2,1.1,2.1,2.3,2.5c1.1,0.5,2.9,0.7,5.2,0.7
		c0.3,0,0.4,0.3,0.4,0.8c0,0.5-0.1,0.8-0.4,0.8c-2,0-3.6,0-4.7-0.1l-7-0.1l-7.2,0.1c-1.1,0.1-2.7,0.1-4.7,0.1
		c-0.3,0-0.4-0.3-0.4-0.8c0-0.5,0.1-0.8,0.4-0.8c2.3,0,4.1-0.2,5.2-0.7c1.1-0.5,1.9-1.3,2.3-2.5c0.4-1.2,0.6-3.1,0.6-5.7V59
		c0-2.9-0.3-5.1-1-6.4c-0.7-1.3-1.9-2-3.5-2c-1.4,0-3.7,0.6-7,2h-0.3c-0.3,0-0.6-0.2-0.7-0.6c-0.1-0.4,0-0.7,0.3-0.8l15.1-7.2
		l0.8-0.1c0.8,0,1.6,1,2.5,3c0.9,2,1.3,4.6,1.3,7.7v0.1c3.1-3.8,6.2-6.6,9.4-8.3c3.1-1.7,6.4-2.6,9.8-2.6c3.9,0,7.1,1,9.5,2.9
		c2.4,1.9,3.9,4.8,4.6,8.6c3.2-3.9,6.4-6.8,9.6-8.6c3.2-1.9,6.6-2.8,10-2.8c4.6,0,8.1,1.3,10.6,4c2.5,2.6,3.7,6.6,3.7,11.8v25.2
		c0,2.6,0.2,4.5,0.6,5.7c0.4,1.2,1.1,2.1,2.3,2.5c1.1,0.5,2.9,0.7,5.2,0.7C877.5,93.7,877.7,94,877.7,94.5z"/>
	<path class="footer-logo-svg-maroon" d="M924.7,88c0.3,0,0.5,0.2,0.7,0.5c0.2,0.3,0.2,0.6,0.1,0.8c-5.7,5-12.1,7.5-19,7.5c-5,0-9.3-1.2-12.9-3.5
		c-3.6-2.3-6.3-5.4-8.1-9.2c-1.9-3.8-2.8-7.9-2.8-12.2c0-5.1,1.2-9.8,3.6-14.1c2.4-4.3,5.7-7.7,10-10.1c4.2-2.5,8.8-3.7,13.9-3.7
		c4.9,0,8.6,1.3,11.2,3.9c2.6,2.6,3.9,6.2,3.9,10.9c0,1.2-0.1,2.1-0.3,2.6c-0.2,0.5-0.6,0.8-1.1,0.8l-32.3,0.1
		c-0.2,1.9-0.3,3.5-0.3,4.7c0,7.5,1.8,13.7,5.3,18.3c3.6,4.7,8.5,7,15,7c2.6,0,4.8-0.3,6.7-1c1.9-0.7,4-1.8,6.3-3.3H924.7z
		 M896.6,50.2c-2.4,2.5-4,5.9-4.8,10.3l24.7-0.5c0-4.4-1-7.8-2.9-10.1c-1.9-2.3-4.5-3.4-7.8-3.4C902.1,46.5,899,47.7,896.6,50.2z"/>
	<path class="footer-logo-svg-maroon" d="M970.4,45.5c1.7,1,2.6,2.3,2.6,3.8c0,1.1-0.4,2.1-1.1,2.9c-0.7,0.8-1.8,1.2-3.2,1.2c-0.8,0-1.5-0.2-2-0.5
		c-0.6-0.3-1.2-0.8-2-1.4c-0.8-0.7-1.5-1.2-2.2-1.6c-0.7-0.3-1.5-0.5-2.5-0.5c-1.1,0-2.3,0.5-3.6,1.4c-1.3,1-3.2,3-5.9,6.1v27.8
		c0,2.6,0.3,4.5,1,5.7c0.7,1.2,1.8,2.1,3.6,2.5c1.7,0.5,4.4,0.7,8.1,0.7c0.3,0,0.5,0.3,0.5,0.8c0,0.5-0.2,0.8-0.5,0.8
		c-2.8,0-5,0-6.6-0.1l-9.6-0.1l-7.2,0.1c-1.1,0.1-2.7,0.1-4.7,0.1c-0.3,0-0.4-0.3-0.4-0.8c0-0.5,0.1-0.8,0.4-0.8
		c2.3,0,4.1-0.2,5.2-0.7c1.1-0.5,1.9-1.3,2.3-2.5c0.4-1.2,0.6-3.1,0.6-5.7V59c0-2.9-0.3-5.1-1-6.4c-0.7-1.3-1.9-2-3.5-2
		c-1.4,0-3.7,0.6-7,2h-0.3c-0.3,0-0.6-0.2-0.7-0.6c-0.1-0.4,0-0.7,0.3-0.8L946,44l0.8-0.1c0.8,0,1.6,1,2.5,3c0.9,2,1.3,4.6,1.3,7.7
		v0.1c3.6-4.2,6.4-7,8.5-8.5c2.1-1.5,4.1-2.3,6-2.3C966.9,43.9,968.7,44.4,970.4,45.5z"/>
</g>
</svg>
